<svg xmlns="http://www.w3.org/2000/svg" width="24" height="24" viewBox="0 0 24 24">
  <path fill="#FFF" d="M483,357 C476.376,357 471,362.376 471,369 C471,375.624 476.376,381 483,381 C489.624,381 495,375.624 495,369 C495,362.376 489.624,357 483,357 Z M483,378.6 C477.696,378.6 473.4,374.304 473.4,369 C473.4,366.78 474.156,364.74 475.428,363.12 L488.88,376.572 C487.26,377.844 485.22,378.6 483,378.6 Z M490.572,374.88 L477.12,361.428 C478.74,360.156 480.78,359.4 483,359.4 C488.304,359.4 492.6,363.696 492.6,369 C492.6,371.22 491.844,373.26 490.572,374.88 Z" transform="translate(-471 -357)"/>
</svg>
