<svg xmlns="http://www.w3.org/2000/svg" width="24" height="24" viewBox="0 0 24 24">
  <path fill="#FFF" d="M274,421 C267.376,421 262,426.376 262,433 C262,439.624 267.376,445 274,445 C280.624,445 286,439.624 286,433 C286,426.376 280.624,421 274,421 Z M270.748,438.148 L266.44,433.84 C265.972,433.372 265.972,432.616 266.44,432.148 C266.908,431.68 267.664,431.68 268.132,432.148 L271.6,435.604 L279.856,427.348 C280.324,426.88 281.08,426.88 281.548,427.348 C282.016,427.816 282.016,428.572 281.548,429.04 L272.44,438.148 C271.984,438.616 271.216,438.616 270.748,438.148 Z" transform="translate(-262 -421)"/>
</svg>
